<svg width="24" height="24" viewBox="0 0 24 24" fill="none" xmlns="http://www.w3.org/2000/svg">
<path d="M3.11111 13.1667H20.8889C21.5 13.1667 22 12.6417 22 12C22 11.3583 21.5 10.8333 20.8889 10.8333H3.11111C2.5 10.8333 2 11.3583 2 12C2 12.6417 2.5 13.1667 3.11111 13.1667ZM10.3333 6.16667C10.3333 6.80833 10.8333 7.33333 11.4444 7.33333H20.8889C21.5 7.33333 22 6.80833 22 6.16667C22 5.525 21.5 5 20.8889 5H11.4444C10.8333 5 10.3333 5.525 10.3333 6.16667Z" fill="black"/>
<path d="M2 17.8333C2 18.475 2.5 19 3.11111 19H12.5556C13.1667 19 13.6667 18.475 13.6667 17.8333C13.6667 17.1917 13.1667 16.6667 12.5556 16.6667H3.11111C2.5 16.6667 2 17.1917 2 17.8333Z" fill="black"/>
</svg>
